<?xml version="1.0" encoding="UTF-8" standalone="no"?>
<!-- Created with Inkscape (http://www.inkscape.org/) -->

<svg
   width="119.00059mm"
   height="7.6072555mm"
   viewBox="0 0 119.00059 7.6072555"
   version="1.1"
   id="svg1"
   xml:space="preserve"
   xmlns="http://www.w3.org/2000/svg"
   xmlns:svg="http://www.w3.org/2000/svg"><defs
     id="defs1" /><g
     id="layer1"
     transform="translate(-14.878543,-126.105)"><g
       id="Layer_1-2-2"
       transform="matrix(0.21913342,0,0,0.21913342,6.9020864,126.10754)">
			
			
			
			
			
			
			
			
			
			
			<path
   class="st0"
   d="m 43.4,14.1 h 14.7 c 0.2,0 0.3,-0.1 0.3,-0.3 v 0 -12.5 c 0,-0.4 0.3,-0.6 0.6,-0.6 v 0 h 5.4 c 0.4,0 0.6,0.3 0.6,0.6 0,0 0,0 0,0 v 32.2 c 0,0.4 -0.3,0.6 -0.6,0.6 0,0 0,0 0,0 H 59 c -0.4,0 -0.6,-0.3 -0.6,-0.6 v 0 -12.9 c 0,-0.2 -0.1,-0.3 -0.3,-0.3 0,0 0,0 0,0 H 43.4 c -0.2,0 -0.3,0.1 -0.3,0.3 0,0 0,0 0,0 v 12.8 c 0,0.3 -0.3,0.6 -0.6,0.6 0,0 0,0 0,0 H 37 c -0.4,0 -0.6,-0.3 -0.6,-0.6 v 0 V 1.3 C 36.4,1 36.7,0.7 37,0.7 h 5.4 c 0.3,0 0.6,0.3 0.6,0.6 0,0 0,0 0,0 v 12.6 c 0,0.1 0.2,0.2 0.4,0.2 z"
   id="path11"
   style="fill:#ffffff" />
			<path
   class="st0"
   d="m 100.2,10.1 -4.5,2.5 C 95.4,12.8 95.1,12.7 94.9,12.4 94.3,11.5 93.7,10.6 93,9.7 91.1,7.5 88.4,6.3 85.5,6.4 c -5.9,0 -10.3,4.5 -10.3,11 0,6.7 4.5,11 10.3,11 2.7,0 5.3,-1.1 7.2,-3 0.8,-0.9 1.5,-1.9 2.1,-2.9 0.2,-0.3 0.6,-0.3 0.8,-0.1 0,0 0,0 0,0 l 4.7,2.2 c 0.3,0.2 0.3,0.6 0.1,0.9 -0.7,1.3 -1.4,2.5 -2.3,3.6 -3.2,3.7 -7.8,5.7 -12.6,5.6 -10,0 -17.1,-7.3 -17.1,-17.4 C 68.4,7.2 75.5,0 85.5,0 c 5.1,-0.2 10,2.2 13.1,6.3 0.7,0.9 1.2,1.8 1.8,2.8 0.1,0.3 0.1,0.7 -0.2,1 0,-0.1 0,-0.1 0,0 z"
   id="path12"
   style="fill:#ffffff" />
			<path
   class="st0"
   d="M 134.5,33.3 121.9,1 c -0.1,-0.2 -0.3,-0.4 -0.5,-0.4 h -7.3 c -0.2,0 -0.5,0.2 -0.5,0.4 L 101,33.3 c -0.1,0.3 0,0.6 0.3,0.8 0.1,0 0.1,0 0.2,0 h 5.7 c 0.2,0 0.5,-0.2 0.6,-0.4 l 2.7,-7.2 c 0,-0.1 0.2,-0.2 0.3,-0.2 h 5.1 c 3,-0.2 5.3,-2.8 5.1,-5.8 0,-0.2 -0.2,-0.4 -0.4,-0.4 h -7.3 c -0.2,0 -0.3,-0.2 -0.3,-0.3 0,0 0,-0.1 0,-0.1 L 117.3,8 c 0.1,-0.2 0.2,-0.2 0.4,-0.2 0.1,0 0.1,0.1 0.2,0.2 l 9.6,25.7 c 0.1,0.2 0.3,0.4 0.6,0.4 h 5.9 c 0.3,0 0.6,-0.3 0.6,-0.6 -0.1,0 -0.1,-0.1 -0.1,-0.2 z"
   id="path13"
   style="fill:#ffffff" />
			<path
   class="st1"
   d="m 141.8,23.1 h 3.8 c 1.5,0 2.7,1.2 2.7,2.7 v 3.8 c 0,2.4 1.8,4.4 4.2,4.5 0.1,0 0.3,-0.1 0.3,-0.3 0,0 0,0 0,0 v -9.5 c 0,-3.2 -2.6,-5.7 -5.7,-5.7 0,0 0,0 0,0 h -9.5 c -0.1,0 -0.3,0.1 -0.3,0.3 0.1,2.4 2.1,4.3 4.5,4.2 z"
   id="path14" />
			<path
   class="st1"
   d="m 141.8,11.1 h 3.8 c 1.5,0 2.7,-1.2 2.7,-2.7 0,0 0,0 0,0 V 4.6 c 0,-2.4 1.8,-4.4 4.2,-4.5 0.1,0 0.3,0.1 0.3,0.3 v 9.5 c 0,3.2 -2.5,5.8 -5.7,5.8 0,0 0,0 -0.1,0 h -9.5 c -0.1,0 -0.3,-0.1 -0.3,-0.3 0.2,-2.4 2.2,-4.3 4.6,-4.3 z"
   id="path15" />
			<path
   class="st1"
   d="M 166.8,23.1 H 163 c -1.5,0 -2.7,1.2 -2.7,2.7 0,0 0,0 0,0 v 3.8 c 0,2.4 -1.8,4.4 -4.2,4.5 -0.1,0 -0.3,-0.1 -0.3,-0.3 v -9.5 c 0,-3.2 2.6,-5.7 5.7,-5.7 0,0 0,0 0,0 h 9.5 c 0.1,0 0.3,0.1 0.3,0.3 -0.1,2.4 -2.1,4.3 -4.5,4.2 z"
   id="path16" />
			<path
   class="st1"
   d="M 166.8,11.1 H 163 c -1.5,0 -2.7,-1.2 -2.7,-2.7 0,0 0,0 0,0 V 4.6 c 0,-2.4 -1.8,-4.4 -4.2,-4.5 -0.1,0 -0.3,0.1 -0.3,0.3 v 9.5 c 0,3.2 2.5,5.8 5.7,5.8 0,0 0,0 0,0 h 9.5 c 0.1,0 0.3,-0.1 0.3,-0.3 -0.1,-2.4 -2.1,-4.3 -4.5,-4.3 z"
   id="path17" />
			<path
   class="st1"
   d="m 155,14.3 c 0.6,0.8 1.3,1.5 2.1,2.1 0.7,0.4 0.7,0.9 0,1.3 -0.8,0.6 -1.5,1.3 -2.1,2.1 -0.4,0.7 -0.9,0.7 -1.3,0 -0.6,-0.8 -1.3,-1.5 -2.1,-2.1 -0.6,-0.4 -0.7,-0.9 0,-1.3 0.8,-0.6 1.5,-1.3 2.1,-2.1 0.3,-0.6 0.8,-0.6 1.3,0 z"
   id="path18" />
			<path
   class="st0"
   d="m 197.6,33.4 v -1.7 c 1.1,0 2.1,-0.2 3.2,-0.4 0.3,-0.1 0.6,-0.4 0.8,-0.7 0.3,-0.5 0.4,-1 0.3,-1.5 V 17.3 h -15.4 v 11.5 c -0.1,0.8 0.3,1.6 0.9,2.1 1,0.6 2.2,0.9 3.4,0.9 v 1.6 h -13.6 v -1.6 c 2.1,-0.1 3.4,-0.4 3.8,-0.9 0.4,-0.5 0.7,-1.2 0.6,-1.8 V 5.3 c 0,-1.8 -1.5,-2.9 -4.4,-3.1 V 0.5 h 13.6 v 1.6 c -1.2,0 -2.3,0.3 -3.3,0.7 -0.7,0.5 -1,1.3 -0.9,2.2 V 15.2 H 202 v -10 c 0,-1.8 -1.5,-2.9 -4.4,-3.1 V 0.5 h 13.6 v 1.6 c -1.2,0 -2.3,0.3 -3.4,0.8 -0.7,0.5 -1,1.3 -0.9,2.1 v 23.7 c -0.1,0.8 0.3,1.6 0.9,2.1 1,0.6 2.2,0.9 3.4,0.9 v 1.7 z"
   id="path19"
   style="fill:#ffffff" />
			<path
   class="st0"
   d="m 222.3,34.1 c -2.9,0 -5.8,-1.2 -7.7,-3.4 -2.1,-2.4 -3.3,-5.5 -3.1,-8.7 -0.1,-3.2 1,-6.4 3.1,-8.8 2.1,-2.3 5.1,-3.5 8.2,-3.4 3,-0.1 5.9,1.1 8,3.3 2.1,2.3 3.2,5.4 3,8.5 0.1,3.3 -1,6.4 -3.1,8.9 -2.2,2.5 -5.3,3.8 -8.4,3.6 z m 0.2,-22.4 c -2,-0.1 -3.8,1 -4.8,2.7 -1.2,2.2 -1.8,4.8 -1.7,7.3 -0.1,2.7 0.5,5.4 1.7,7.8 0.9,1.8 2.8,3 4.8,2.9 2,0 3.8,-1.1 4.6,-2.9 1.2,-2.4 1.8,-5 1.6,-7.7 0.1,-2.6 -0.4,-5.1 -1.6,-7.4 -0.8,-1.7 -2.6,-2.8 -4.6,-2.7 z"
   id="path20"
   style="fill:#ffffff" />
			<path
   class="st0"
   d="m 251.5,33.5 -0.4,-0.3 V 30.3 H 251 c -1.8,2.3 -4.6,3.6 -7.6,3.7 -4.2,0 -6.3,-2.6 -6.3,-7.7 v -11 c 0,-1.9 -1.2,-2.9 -3.6,-3 v -1.5 l 7.6,-0.5 0.3,0.3 v 15.9 c -0.1,1.3 0.3,2.6 1,3.6 0.6,0.9 1.7,1.4 2.7,1.3 2.4,0 4.6,-1.3 5.8,-3.4 V 15.1 c 0,-0.6 -0.2,-1.3 -0.6,-1.8 -0.3,-0.4 -0.7,-0.8 -1.2,-0.9 -0.4,-0.1 -1.3,-0.1 -2.5,-0.2 v -1.5 l 8.3,-0.5 0.4,0.3 v 18.1 c 0,1.8 1.2,2.7 3.5,2.7 V 33 c 0.1,0 -7.3,0.5 -7.3,0.5 z"
   id="path21"
   style="fill:#ffffff" />
			<path
   class="st0"
   d="m 263.4,32 -0.5,1.5 h -1.7 L 261,25.6 h 1.5 c 0.4,1.8 1.4,3.4 2.7,4.7 1.2,1.3 2.9,2 4.6,2 3.1,0 4.6,-1.3 4.6,-3.9 0,-1 -0.4,-2 -1.1,-2.6 -1.4,-1 -3,-1.7 -4.7,-2.1 -4.7,-1.4 -7,-3.7 -7,-7 0,-1.8 0.8,-3.6 2.1,-4.8 1.5,-1.3 3.5,-2 5.5,-1.9 1.7,0 3.5,0.4 5,1.2 l 0.5,-1.2 h 1.6 l 0.4,7.4 h -1.6 c -0.8,-3.7 -2.9,-5.6 -6,-5.6 -1.1,-0.1 -2.1,0.3 -3,0.9 -0.7,0.6 -1.1,1.4 -1.1,2.3 -0.1,1 0.3,2 1,2.6 1.5,0.9 3.1,1.6 4.7,2.1 2.7,0.9 4.6,1.9 5.6,3 1,1.1 1.6,2.6 1.5,4.2 0.1,2 -0.8,3.9 -2.4,5.2 -1.7,1.4 -3.9,2.2 -6.1,2.1 -2.2,0 -4.3,-0.7 -6.1,-2.1 z"
   id="path22"
   style="fill:#ffffff" />
			<path
   class="st0"
   d="m 294.9,32.4 c -1.9,0.9 -4,1.4 -6.2,1.5 -3.5,0 -5.2,-1.8 -5.2,-5.5 V 12.8 h -4.1 v -2.2 h 4.2 V 3.5 h 4.2 v 7.1 h 6.5 v 2.2 h -6.5 v 12.8 c -0.1,1.5 0.1,3 0.7,4.3 0.5,0.8 1.5,1.1 3,1.1 1.1,0 2.2,-0.1 3.3,-0.4 z"
   id="path23"
   style="fill:#ffffff" />
			<path
   class="st0"
   d="m 307,34.1 c -3,0 -5.8,-1.2 -7.8,-3.4 -2.1,-2.4 -3.3,-5.5 -3.1,-8.7 -0.1,-3.2 1,-6.4 3.1,-8.8 2.1,-2.3 5.1,-3.5 8.2,-3.4 3,-0.1 5.9,1.1 8,3.3 2.1,2.3 3.2,5.4 3,8.5 0.1,3.3 -1,6.4 -3.1,8.9 -2.1,2.5 -5.2,3.8 -8.3,3.6 z m 0.3,-22.4 c -2,-0.1 -3.8,1 -4.8,2.7 -1.2,2.2 -1.8,4.8 -1.7,7.3 -0.1,2.7 0.5,5.4 1.7,7.8 0.9,1.8 2.8,2.9 4.8,2.9 2,0 3.8,-1.1 4.6,-2.9 1.2,-2.4 1.8,-5 1.6,-7.7 0.1,-2.6 -0.4,-5.1 -1.6,-7.4 -0.9,-1.7 -2.7,-2.8 -4.6,-2.7 z"
   id="path24"
   style="fill:#ffffff" />
			<path
   class="st0"
   d="m 333.8,33.4 v -1.5 l 1.2,-0.1 c 1.6,-0.1 2.3,-0.8 2.3,-2.2 V 17.7 c 0.1,-1.3 -0.3,-2.6 -1.1,-3.7 -0.7,-0.9 -1.7,-1.4 -2.8,-1.4 -2.5,-0.1 -4.8,1.3 -5.9,3.5 v 13.1 c 0,1.6 1.2,2.4 3.5,2.6 v 1.5 h -11.2 v -1.5 l 1.1,-0.1 c 1.5,-0.1 2.2,-0.9 2.2,-2.2 V 15.4 c 0,-2 -1.2,-3 -3.6,-3.1 v -1.5 l 7.6,-0.5 0.3,0.3 v 3.1 h 0.1 c 1.2,-1.3 2.6,-2.4 4.2,-3.2 1.1,-0.4 2.3,-0.7 3.5,-0.6 4.3,0 6.5,2.5 6.5,7.6 v 11.9 c 0,1.5 1.1,2.4 3.3,2.5 v 1.5 z"
   id="path25"
   style="fill:#ffffff" />
			<g
   id="g3"
   transform="translate(324.55085,-48.798151)"><path
     class="st0"
     d="m 53.4,82.2 v -1.7 c 1.1,0 2.1,-0.2 3.2,-0.4 0.3,-0.2 0.6,-0.4 0.8,-0.7 0.3,-0.5 0.4,-1 0.3,-1.5 V 66.1 H 42.4 v 11.4 c -0.1,0.8 0.3,1.6 0.9,2.1 1,0.6 2.2,0.9 3.4,0.9 v 1.7 H 33 v -1.7 c 2.1,-0.1 3.4,-0.4 3.8,-0.9 0.4,-0.5 0.7,-1.2 0.6,-1.8 V 54.1 C 37.4,52.3 35.9,51.2 33,51 V 49.3 H 46.6 V 51 c -1.2,0 -2.3,0.3 -3.3,0.7 -0.7,0.5 -1,1.3 -0.9,2.1 V 64 H 57.8 V 54 c 0,-1.8 -1.5,-2.9 -4.4,-3.1 V 49.2 H 67 V 51 c -1.2,0 -2.3,0.3 -3.4,0.8 -0.7,0.5 -1,1.3 -0.9,2.1 v 23.7 c -0.1,0.8 0.3,1.6 0.9,2.1 1,0.6 2.2,0.9 3.4,0.9 v 1.7 z"
     id="path1-4"
     style="fill:#ffffff" /><path
     class="st0"
     d="m 86.6,76.8 c -2.1,4 -5.3,6 -9.4,6 -3,0.2 -6,-1.1 -8,-3.4 -2,-2.5 -3,-5.7 -2.9,-8.9 -0.1,-3 1,-6 2.9,-8.3 1.8,-2.3 4.6,-3.6 7.5,-3.5 3,0 5.3,0.9 6.9,2.6 1.7,2 2.5,4.6 2.4,7.2 V 70 H 70.9 c 0,3.3 0.7,5.7 2,7.5 1.3,1.8 3.4,2.8 5.7,2.7 1.2,0 2.5,-0.3 3.5,-0.9 1.2,-0.9 2.2,-2.1 2.9,-3.5 z m -5.2,-8.7 c 0,-5.1 -1.6,-7.7 -4.8,-7.6 -1.6,0 -3.1,0.8 -4,2 -1.2,1.6 -1.8,3.6 -1.8,5.6 z"
     id="path2-4"
     style="fill:#ffffff" /><path
     class="st0"
     d="m 109.8,81.8 c -1.2,0.5 -2.5,0.8 -3.8,0.9 -2.4,0 -3.8,-1 -4.3,-3.3 h -0.1 c -1.8,2.2 -4.5,3.4 -7.4,3.4 -1.5,0 -3,-0.5 -4.2,-1.6 -1.1,-1.1 -1.7,-2.6 -1.6,-4.2 -0.1,-1.6 0.5,-3.2 1.6,-4.4 1.6,-1.3 3.4,-2.2 5.4,-2.7 2.2,-0.6 4.3,-1.4 6.3,-2.3 v -2.3 c 0,-1.2 -0.4,-2.5 -1.1,-3.4 -0.8,-1 -2,-1.5 -3.3,-1.5 -1.2,-0.1 -2.4,0.3 -3.3,1 0,0.5 0.1,0.9 0.2,1.4 0.1,0.5 0.2,1.1 0.2,1.7 0,0.6 -0.3,1.2 -0.8,1.5 -0.6,0.4 -1.3,0.6 -2,0.6 -1.5,0 -2.2,-0.9 -2.2,-2.6 0,-1.4 0.9,-2.6 2.6,-3.7 1.6,-1.1 3.6,-1.6 5.5,-1.6 3.2,0 5.4,0.6 6.6,1.9 1.2,1.2 1.8,3.2 1.8,5.7 l -0.1,11.4 c -0.1,0.7 0.2,1.3 0.6,1.9 0.3,0.3 0.6,0.6 1,0.7 0.8,0.1 1.5,0.1 2.3,0.1 z m -8.1,-12.3 c -3.4,1 -5.7,2 -6.9,3.1 -1.2,1 -1.9,2.4 -1.8,3.9 0,2.5 1.2,3.7 3.5,3.7 2,-0.1 3.8,-1.1 5,-2.7 z"
     id="path3"
     style="fill:#ffffff" /><path
     class="st0"
     d="m 111.2,82.2 v -1.5 l 1.1,-0.1 c 1.5,-0.1 2.3,-0.8 2.3,-2.2 v -24 c 0,-0.8 -0.3,-1.5 -0.7,-2.1 -0.5,-0.7 -1.8,-1.1 -3.9,-1.3 v -1.5 l 8.6,-0.5 0.3,0.3 V 78 c 0,1.6 1.1,2.5 3.4,2.6 v 1.5 h -11.1 z"
     id="path4"
     style="fill:#ffffff" /><path
     class="st0"
     d="m 137.7,81.2 c -1.9,0.9 -4,1.4 -6.2,1.5 -3.5,0 -5.2,-1.8 -5.2,-5.5 V 61.6 h -4.2 v -2.2 h 4.2 v -7.1 h 4.2 v 7.1 h 6.5 v 2.2 h -6.4 v 12.8 c -0.1,1.5 0.1,3 0.7,4.3 0.5,0.8 1.5,1.1 3,1.1 1.1,0 2.2,-0.1 3.3,-0.4 0.1,0.1 0.1,1.8 0.1,1.8 z"
     id="path5"
     style="fill:#ffffff" /><path
     class="st0"
     d="m 153.8,82.2 v -1.5 l 1.3,-0.1 c 1.5,-0.1 2.3,-0.8 2.3,-2.2 V 66.5 c 0.1,-1.3 -0.3,-2.6 -1,-3.7 -0.7,-0.9 -1.7,-1.4 -2.8,-1.4 -2.5,-0.1 -4.8,1.3 -5.9,3.5 V 78 c 0,1.6 1.2,2.4 3.5,2.6 v 1.5 h -11.3 v -1.5 l 1.1,-0.1 c 1.5,-0.1 2.2,-0.9 2.2,-2.2 v -24 c 0,-0.6 -0.2,-1.2 -0.5,-1.8 -0.2,-0.5 -0.6,-0.9 -1.1,-1.1 -0.9,-0.2 -1.9,-0.4 -2.9,-0.4 v -1.6 l 8.5,-0.5 0.3,0.3 v 13.4 h 0.1 c 1.2,-1.3 2.6,-2.4 4.2,-3.2 1.1,-0.4 2.4,-0.7 3.6,-0.7 4.2,0 6.3,2.5 6.3,7.6 v 11.9 c 0,1.5 1.1,2.4 3.3,2.5 v 1.5 z"
     id="path6"
     style="fill:#ffffff" /><path
     class="st0"
     d="m 185,76.9 c -0.9,1.7 -2.3,3.2 -4,4.3 -1.5,1.1 -3.4,1.6 -5.2,1.6 -3,0.2 -5.8,-1.1 -7.8,-3.3 -2,-2.5 -3,-5.7 -2.8,-8.9 -0.1,-3.1 1,-6.1 3.1,-8.4 1.9,-2.3 4.8,-3.6 7.8,-3.5 2,-0.1 3.9,0.5 5.5,1.7 1.3,1 2.1,2.6 2.1,4.3 0,2 -0.8,2.9 -2.4,2.9 -0.8,0 -1.5,-0.2 -2.1,-0.7 -0.5,-0.4 -0.8,-0.9 -0.8,-1.6 0,-0.7 0.1,-1.4 0.3,-2.1 0.2,-0.8 0.3,-1.3 0.4,-1.7 -0.4,-0.8 -1.5,-1.2 -3,-1.2 -1.8,0 -3.5,1 -4.4,2.6 -1.1,1.7 -1.7,4.2 -1.7,7.4 -0.1,2.5 0.6,5 1.9,7.1 1.1,1.7 3,2.7 5,2.7 2.6,0 4.8,-1.5 6.5,-4.4 z"
     id="path7"
     style="fill:#ffffff" /><path
     class="st0"
     d="m 207.8,81.8 c -1.2,0.5 -2.5,0.8 -3.8,0.9 -2.4,0 -3.8,-1 -4.3,-3.3 h -0.1 c -1.8,2.2 -4.5,3.4 -7.4,3.4 -1.6,0.1 -3.1,-0.5 -4.2,-1.6 -1.1,-1.1 -1.7,-2.6 -1.6,-4.2 -0.1,-1.6 0.5,-3.2 1.6,-4.4 1.6,-1.3 3.4,-2.3 5.4,-2.8 2.2,-0.6 4.3,-1.4 6.3,-2.3 v -2.2 c 0,-1.2 -0.4,-2.5 -1.1,-3.4 -0.8,-1 -2,-1.5 -3.3,-1.5 -1.2,-0.1 -2.4,0.3 -3.3,1 0,0.5 0.1,0.9 0.2,1.4 0.1,0.5 0.2,1.1 0.2,1.7 0,0.6 -0.3,1.2 -0.8,1.5 -0.6,0.4 -1.3,0.6 -2,0.6 -1.5,0 -2.2,-0.9 -2.2,-2.6 0,-1.4 0.9,-2.6 2.6,-3.7 1.6,-1.1 3.6,-1.6 5.5,-1.6 3.2,0 5.4,0.6 6.6,1.9 1.2,1.2 1.9,3.1 1.9,5.7 l -0.1,11.4 c -0.1,0.7 0.2,1.3 0.6,1.9 0.3,0.3 0.6,0.6 1,0.7 0.7,0.1 1.5,0.1 2.2,0.1 z m -8.1,-12.3 c -3.4,1 -5.7,2 -6.9,3.1 -1.2,1 -1.9,2.4 -1.8,3.9 0,2.5 1.2,3.7 3.5,3.7 2,-0.1 3.8,-1.1 5,-2.7 z"
     id="path8"
     style="fill:#ffffff" /><path
     class="st0"
     d="m 222.1,61.4 c -2.1,0.2 -4.1,1.4 -5,3.4 v 13.3 c -0.1,0.7 0.2,1.4 0.8,1.8 1.1,0.5 2.3,0.8 3.6,0.8 v 1.5 h -12 v -1.5 l 1.1,-0.1 c 1.5,-0.1 2.2,-0.9 2.2,-2.2 V 64.2 c 0,-2 -1.2,-3 -3.6,-3.1 v -1.5 l 7.6,-0.5 0.3,0.3 v 3.1 h 0.1 c 2,-2.5 4.1,-3.8 6.4,-3.8 0.9,0 1.8,0.3 2.4,0.9 1.1,1.3 1.2,3.3 0.3,4.7 -0.4,0.5 -1,0.9 -1.7,0.8 -0.7,0 -1.4,-0.2 -1.9,-0.6 -0.5,-0.4 -0.7,-0.9 -0.7,-1.5 -0.1,-0.5 -0.1,-1.1 0.1,-1.6 z"
     id="path9"
     style="fill:#ffffff" /><path
     class="st0"
     d="m 247.3,76.8 c -2.1,4 -5.3,6 -9.4,6 -3,0.2 -6,-1.1 -8,-3.4 -2,-2.5 -3,-5.7 -2.9,-8.9 -0.1,-3 1,-6 2.9,-8.3 1.8,-2.3 4.6,-3.6 7.5,-3.5 3,0 5.3,0.9 6.9,2.6 1.7,2 2.5,4.6 2.4,7.2 V 70 h -15.1 c 0,3.2 0.7,5.8 2,7.5 1.3,1.8 3.4,2.8 5.7,2.7 1.2,0 2.4,-0.3 3.5,-1 1.2,-0.9 2.3,-2.1 3,-3.5 z m -5.1,-8.7 c 0,-5.1 -1.6,-7.7 -4.8,-7.6 -1.6,0 -3.1,0.7 -4.1,2 -1.2,1.6 -1.8,3.6 -1.8,5.6 z"
     id="path10"
     style="fill:#ffffff" /><path
     class="st0"
     d="m 254.9,55.2 c 0,2.3 -1.8,4.2 -4.1,4.2 -2.3,0 -4.2,-1.8 -4.2,-4.1 0,-2.3 1.8,-4.2 4.1,-4.2 0,0 0,0 0.1,0 2.3,0 4.1,1.8 4.1,4.1 z m -1,0 c 0,-1.7 -1.4,-3.1 -3.1,-3.1 -1.7,0 -3.1,1.4 -3.1,3.1 0,1.7 1.4,3.1 3.1,3.1 1.7,0 3.1,-1.4 3.1,-3.1 z m -2.5,0.4 1.2,1.4 h -1 l -1.1,-1.4 h -0.3 V 57 h -0.9 v -3.8 h 1.8 c 1,0 1.5,0.5 1.5,1.2 0,0.8 -0.5,1.1 -1.2,1.2 z m -1.3,-0.7 h 0.9 c 0.4,0 0.6,-0.1 0.6,-0.4 0,-0.3 -0.2,-0.5 -0.6,-0.5 h -0.9 z"
     id="path26"
     style="fill:#ffffff" /></g>
		</g></g><style
     type="text/css"
     id="style1">
	.st0{fill:#0A2240;}
	.st1{fill:#E0592A;}
</style></svg>
