<?xml version="1.0" encoding="utf-8"?>
<!-- Generator: Adobe Illustrator 25.2.3, SVG Export Plug-In . SVG Version: 6.00 Build 0)  -->
<svg version="1.1" id="Layer_1" xmlns="http://www.w3.org/2000/svg" xmlns:xlink="http://www.w3.org/1999/xlink" x="0px" y="0px"
	 width="378px" height="82.8px" viewBox="0 0 378 82.8" style="enable-background:new 0 0 378 82.8;" xml:space="preserve">
<style type="text/css">
	.st0{fill:#0A2240;}
	.st1{fill:#E0592A;}
</style>
<g id="Layer_2_1_">
	<g id="Layer_1-2">
		<g id="Layer_1-2-2">
			<path class="st0" d="M53.4,82.2v-1.7c1.1,0,2.1-0.2,3.2-0.4c0.3-0.2,0.6-0.4,0.8-0.7c0.3-0.5,0.4-1,0.3-1.5V66.1H42.4v11.4
				c-0.1,0.8,0.3,1.6,0.9,2.1c1,0.6,2.2,0.9,3.4,0.9v1.7H33v-1.7c2.1-0.1,3.4-0.4,3.8-0.9c0.4-0.5,0.7-1.2,0.6-1.8V54.1
				c0-1.8-1.5-2.9-4.4-3.1v-1.7h13.6V51c-1.2,0-2.3,0.3-3.3,0.7c-0.7,0.5-1,1.3-0.9,2.1v10.2h15.4v-10c0-1.8-1.5-2.9-4.4-3.1v-1.7
				H67V51c-1.2,0-2.3,0.3-3.4,0.8c-0.7,0.5-1,1.3-0.9,2.1v23.7c-0.1,0.8,0.3,1.6,0.9,2.1c1,0.6,2.2,0.9,3.4,0.9v1.7L53.4,82.2z"/>
			<path class="st0" d="M86.6,76.8c-2.1,4-5.3,6-9.4,6c-3,0.2-6-1.1-8-3.4c-2-2.5-3-5.7-2.9-8.9c-0.1-3,1-6,2.9-8.3
				c1.8-2.3,4.6-3.6,7.5-3.5c3,0,5.3,0.9,6.9,2.6c1.7,2,2.5,4.6,2.4,7.2v1.5H70.9c0,3.3,0.7,5.7,2,7.5c1.3,1.8,3.4,2.8,5.7,2.7
				c1.2,0,2.5-0.3,3.5-0.9c1.2-0.9,2.2-2.1,2.9-3.5L86.6,76.8z M81.4,68.1c0-5.1-1.6-7.7-4.8-7.6c-1.6,0-3.1,0.8-4,2
				c-1.2,1.6-1.8,3.6-1.8,5.6H81.4z"/>
			<path class="st0" d="M109.8,81.8c-1.2,0.5-2.5,0.8-3.8,0.9c-2.4,0-3.8-1-4.3-3.3h-0.1c-1.8,2.2-4.5,3.4-7.4,3.4
				c-1.5,0-3-0.5-4.2-1.6c-1.1-1.1-1.7-2.6-1.6-4.2c-0.1-1.6,0.5-3.2,1.6-4.4c1.6-1.3,3.4-2.2,5.4-2.7c2.2-0.6,4.3-1.4,6.3-2.3v-2.3
				c0-1.2-0.4-2.5-1.1-3.4c-0.8-1-2-1.5-3.3-1.5c-1.2-0.1-2.4,0.3-3.3,1c0,0.5,0.1,0.9,0.2,1.4c0.1,0.5,0.2,1.1,0.2,1.7
				c0,0.6-0.3,1.2-0.8,1.5c-0.6,0.4-1.3,0.6-2,0.6c-1.5,0-2.2-0.9-2.2-2.6c0-1.4,0.9-2.6,2.6-3.7c1.6-1.1,3.6-1.6,5.5-1.6
				c3.2,0,5.4,0.6,6.6,1.9c1.2,1.2,1.8,3.2,1.8,5.7l-0.1,11.4c-0.1,0.7,0.2,1.3,0.6,1.9c0.3,0.3,0.6,0.6,1,0.7
				c0.8,0.1,1.5,0.1,2.3,0.1L109.8,81.8L109.8,81.8z M101.7,69.5c-3.4,1-5.7,2-6.9,3.1c-1.2,1-1.9,2.4-1.8,3.9
				c0,2.5,1.2,3.7,3.5,3.7c2-0.1,3.8-1.1,5-2.7L101.7,69.5z"/>
			<path class="st0" d="M111.2,82.2v-1.5l1.1-0.1c1.5-0.1,2.3-0.8,2.3-2.2V54.4c0-0.8-0.3-1.5-0.7-2.1c-0.5-0.7-1.8-1.1-3.9-1.3
				v-1.5l8.6-0.5l0.3,0.3V78c0,1.6,1.1,2.5,3.4,2.6v1.5H111.2z"/>
			<path class="st0" d="M137.7,81.2c-1.9,0.9-4,1.4-6.2,1.5c-3.5,0-5.2-1.8-5.2-5.5V61.6h-4.2v-2.2h4.2v-7.1h4.2v7.1h6.5v2.2h-6.4
				v12.8c-0.1,1.5,0.1,3,0.7,4.3c0.5,0.8,1.5,1.1,3,1.1c1.1,0,2.2-0.1,3.3-0.4C137.7,79.5,137.7,81.2,137.7,81.2z"/>
			<path class="st0" d="M153.8,82.2v-1.5l1.3-0.1c1.5-0.1,2.3-0.8,2.3-2.2V66.5c0.1-1.3-0.3-2.6-1-3.7c-0.7-0.9-1.7-1.4-2.8-1.4
				c-2.5-0.1-4.8,1.3-5.9,3.5v13.1c0,1.6,1.2,2.4,3.5,2.6v1.5h-11.3v-1.5l1.1-0.1c1.5-0.1,2.2-0.9,2.2-2.2v-24
				c0-0.6-0.2-1.2-0.5-1.8c-0.2-0.5-0.6-0.9-1.1-1.1c-0.9-0.2-1.9-0.4-2.9-0.4v-1.6l8.5-0.5l0.3,0.3v13.4h0.1
				c1.2-1.3,2.6-2.4,4.2-3.2c1.1-0.4,2.4-0.7,3.6-0.7c4.2,0,6.3,2.5,6.3,7.6v11.9c0,1.5,1.1,2.4,3.3,2.5v1.5L153.8,82.2z"/>
			<path class="st0" d="M185,76.9c-0.9,1.7-2.3,3.2-4,4.3c-1.5,1.1-3.4,1.6-5.2,1.6c-3,0.2-5.8-1.1-7.8-3.3c-2-2.5-3-5.7-2.8-8.9
				c-0.1-3.1,1-6.1,3.1-8.4c1.9-2.3,4.8-3.6,7.8-3.5c2-0.1,3.9,0.5,5.5,1.7c1.3,1,2.1,2.6,2.1,4.3c0,2-0.8,2.9-2.4,2.9
				c-0.8,0-1.5-0.2-2.1-0.7c-0.5-0.4-0.8-0.9-0.8-1.6c0-0.7,0.1-1.4,0.3-2.1c0.2-0.8,0.3-1.3,0.4-1.7c-0.4-0.8-1.5-1.2-3-1.2
				c-1.8,0-3.5,1-4.4,2.6c-1.1,1.7-1.7,4.2-1.7,7.4c-0.1,2.5,0.6,5,1.9,7.1c1.1,1.7,3,2.7,5,2.7c2.6,0,4.8-1.5,6.5-4.4L185,76.9
				L185,76.9z"/>
			<path class="st0" d="M207.8,81.8c-1.2,0.5-2.5,0.8-3.8,0.9c-2.4,0-3.8-1-4.3-3.3h-0.1c-1.8,2.2-4.5,3.4-7.4,3.4
				c-1.6,0.1-3.1-0.5-4.2-1.6c-1.1-1.1-1.7-2.6-1.6-4.2c-0.1-1.6,0.5-3.2,1.6-4.4c1.6-1.3,3.4-2.3,5.4-2.8c2.2-0.6,4.3-1.4,6.3-2.3
				v-2.2c0-1.2-0.4-2.5-1.1-3.4c-0.8-1-2-1.5-3.3-1.5c-1.2-0.1-2.4,0.3-3.3,1c0,0.5,0.1,0.9,0.2,1.4c0.1,0.5,0.2,1.1,0.2,1.7
				c0,0.6-0.3,1.2-0.8,1.5c-0.6,0.4-1.3,0.6-2,0.6c-1.5,0-2.2-0.9-2.2-2.6c0-1.4,0.9-2.6,2.6-3.7c1.6-1.1,3.6-1.6,5.5-1.6
				c3.2,0,5.4,0.6,6.6,1.9c1.2,1.2,1.9,3.1,1.9,5.7l-0.1,11.4c-0.1,0.7,0.2,1.3,0.6,1.9c0.3,0.3,0.6,0.6,1,0.7
				c0.7,0.1,1.5,0.1,2.2,0.1L207.8,81.8L207.8,81.8z M199.7,69.5c-3.4,1-5.7,2-6.9,3.1c-1.2,1-1.9,2.4-1.8,3.9
				c0,2.5,1.2,3.7,3.5,3.7c2-0.1,3.8-1.1,5-2.7L199.7,69.5z"/>
			<path class="st0" d="M222.1,61.4c-2.1,0.2-4.1,1.4-5,3.4v13.3c-0.1,0.7,0.2,1.4,0.8,1.8c1.1,0.5,2.3,0.8,3.6,0.8v1.5h-12v-1.5
				l1.1-0.1c1.5-0.1,2.2-0.9,2.2-2.2V64.2c0-2-1.2-3-3.6-3.1v-1.5l7.6-0.5l0.3,0.3v3.1h0.1c2-2.5,4.1-3.8,6.4-3.8
				c0.9,0,1.8,0.3,2.4,0.9c1.1,1.3,1.2,3.3,0.3,4.7c-0.4,0.5-1,0.9-1.7,0.8c-0.7,0-1.4-0.2-1.9-0.6c-0.5-0.4-0.7-0.9-0.7-1.5
				C221.9,62.5,221.9,61.9,222.1,61.4L222.1,61.4z"/>
			<path class="st0" d="M247.3,76.8c-2.1,4-5.3,6-9.4,6c-3,0.2-6-1.1-8-3.4c-2-2.5-3-5.7-2.9-8.9c-0.1-3,1-6,2.9-8.3
				c1.8-2.3,4.6-3.6,7.5-3.5c3,0,5.3,0.9,6.9,2.6c1.7,2,2.5,4.6,2.4,7.2v1.5h-15.1c0,3.2,0.7,5.8,2,7.5c1.3,1.8,3.4,2.8,5.7,2.7
				c1.2,0,2.4-0.3,3.5-1c1.2-0.9,2.3-2.1,3-3.5L247.3,76.8z M242.2,68.1c0-5.1-1.6-7.7-4.8-7.6c-1.6,0-3.1,0.7-4.1,2
				c-1.2,1.6-1.8,3.6-1.8,5.6H242.2z"/>
			<path class="st0" d="M43.4,14.1h14.7c0.2,0,0.3-0.1,0.3-0.3v0V1.3c0-0.4,0.3-0.6,0.6-0.6l0,0h5.4c0.4,0,0.6,0.3,0.6,0.6
				c0,0,0,0,0,0v32.2c0,0.4-0.3,0.6-0.6,0.6c0,0,0,0,0,0H59c-0.4,0-0.6-0.3-0.6-0.6l0,0V20.6c0-0.2-0.1-0.3-0.3-0.3c0,0,0,0,0,0
				H43.4c-0.2,0-0.3,0.1-0.3,0.3c0,0,0,0,0,0v12.8c0,0.3-0.3,0.6-0.6,0.6c0,0,0,0,0,0H37c-0.4,0-0.6-0.3-0.6-0.6l0,0V1.3
				c0-0.3,0.3-0.6,0.6-0.6h5.4c0.3,0,0.6,0.3,0.6,0.6c0,0,0,0,0,0v12.6C43,14,43.2,14.1,43.4,14.1z"/>
			<path class="st0" d="M100.2,10.1l-4.5,2.5c-0.3,0.2-0.6,0.1-0.8-0.2c-0.6-0.9-1.2-1.8-1.9-2.7c-1.9-2.2-4.6-3.4-7.5-3.3
				c-5.9,0-10.3,4.5-10.3,11c0,6.7,4.5,11,10.3,11c2.7,0,5.3-1.1,7.2-3c0.8-0.9,1.5-1.9,2.1-2.9c0.2-0.3,0.6-0.3,0.8-0.1
				c0,0,0,0,0,0l4.7,2.2c0.3,0.2,0.3,0.6,0.1,0.9c-0.7,1.3-1.4,2.5-2.3,3.6c-3.2,3.7-7.8,5.7-12.6,5.6c-10,0-17.1-7.3-17.1-17.4
				S75.5,0,85.5,0c5.1-0.2,10,2.2,13.1,6.3c0.7,0.9,1.2,1.8,1.8,2.8C100.5,9.4,100.5,9.8,100.2,10.1C100.2,10,100.2,10,100.2,10.1z"
				/>
			<path class="st0" d="M134.5,33.3L121.9,1c-0.1-0.2-0.3-0.4-0.5-0.4h-7.3c-0.2,0-0.5,0.2-0.5,0.4l-12.6,32.3
				c-0.1,0.3,0,0.6,0.3,0.8c0.1,0,0.1,0,0.2,0h5.7c0.2,0,0.5-0.2,0.6-0.4l2.7-7.2c0-0.1,0.2-0.2,0.3-0.2h5.1c3-0.2,5.3-2.8,5.1-5.8
				c0-0.2-0.2-0.4-0.4-0.4h-7.3c-0.2,0-0.3-0.2-0.3-0.3c0,0,0-0.1,0-0.1L117.3,8c0.1-0.2,0.2-0.2,0.4-0.2c0.1,0,0.1,0.1,0.2,0.2
				l9.6,25.7c0.1,0.2,0.3,0.4,0.6,0.4h5.9c0.3,0,0.6-0.3,0.6-0.6C134.5,33.5,134.5,33.4,134.5,33.3z"/>
			<path class="st1" d="M141.8,23.1h3.8c1.5,0,2.7,1.2,2.7,2.7v3.8c0,2.4,1.8,4.4,4.2,4.5c0.1,0,0.3-0.1,0.3-0.3c0,0,0,0,0,0v-9.5
				c0-3.2-2.6-5.7-5.7-5.7c0,0,0,0,0,0h-9.5c-0.1,0-0.3,0.1-0.3,0.3C137.4,21.3,139.4,23.2,141.8,23.1z"/>
			<path class="st1" d="M141.8,11.1h3.8c1.5,0,2.7-1.2,2.7-2.7c0,0,0,0,0,0V4.6c0-2.4,1.8-4.4,4.2-4.5c0.1,0,0.3,0.1,0.3,0.3v9.5
				c0,3.2-2.5,5.8-5.7,5.8c0,0,0,0-0.1,0h-9.5c-0.1,0-0.3-0.1-0.3-0.3C137.4,13,139.4,11.1,141.8,11.1L141.8,11.1z"/>
			<path class="st1" d="M166.8,23.1H163c-1.5,0-2.7,1.2-2.7,2.7c0,0,0,0,0,0v3.8c0,2.4-1.8,4.4-4.2,4.5c-0.1,0-0.3-0.1-0.3-0.3v-9.5
				c0-3.2,2.6-5.7,5.7-5.7c0,0,0,0,0,0h9.5c0.1,0,0.3,0.1,0.3,0.3C171.2,21.3,169.2,23.2,166.8,23.1z"/>
			<path class="st1" d="M166.8,11.1H163c-1.5,0-2.7-1.2-2.7-2.7c0,0,0,0,0,0V4.6c0-2.4-1.8-4.4-4.2-4.5c-0.1,0-0.3,0.1-0.3,0.3v9.5
				c0,3.2,2.5,5.8,5.7,5.8c0,0,0,0,0,0h9.5c0.1,0,0.3-0.1,0.3-0.3C171.2,13,169.2,11.1,166.8,11.1z"/>
			<path class="st1" d="M155,14.3c0.6,0.8,1.3,1.5,2.1,2.1c0.7,0.4,0.7,0.9,0,1.3c-0.8,0.6-1.5,1.3-2.1,2.1c-0.4,0.7-0.9,0.7-1.3,0
				c-0.6-0.8-1.3-1.5-2.1-2.1c-0.6-0.4-0.7-0.9,0-1.3c0.8-0.6,1.5-1.3,2.1-2.1C154,13.7,154.5,13.7,155,14.3z"/>
			<path class="st0" d="M197.6,33.4v-1.7c1.1,0,2.1-0.2,3.2-0.4c0.3-0.1,0.6-0.4,0.8-0.7c0.3-0.5,0.4-1,0.3-1.5V17.3h-15.4v11.5
				c-0.1,0.8,0.3,1.6,0.9,2.1c1,0.6,2.2,0.9,3.4,0.9v1.6h-13.6v-1.6c2.1-0.1,3.4-0.4,3.8-0.9c0.4-0.5,0.7-1.2,0.6-1.8V5.3
				c0-1.8-1.5-2.9-4.4-3.1V0.5h13.6v1.6c-1.2,0-2.3,0.3-3.3,0.7c-0.7,0.5-1,1.3-0.9,2.2v10.2h15.4v-10c0-1.8-1.5-2.9-4.4-3.1V0.5
				h13.6v1.6c-1.2,0-2.3,0.3-3.4,0.8c-0.7,0.5-1,1.3-0.9,2.1v23.7c-0.1,0.8,0.3,1.6,0.9,2.1c1,0.6,2.2,0.9,3.4,0.9v1.7H197.6z"/>
			<path class="st0" d="M222.3,34.1c-2.9,0-5.8-1.2-7.7-3.4c-2.1-2.4-3.3-5.5-3.1-8.7c-0.1-3.2,1-6.4,3.1-8.8
				c2.1-2.3,5.1-3.5,8.2-3.4c3-0.1,5.9,1.1,8,3.3c2.1,2.3,3.2,5.4,3,8.5c0.1,3.3-1,6.4-3.1,8.9C228.5,33,225.4,34.3,222.3,34.1z
				 M222.5,11.7c-2-0.1-3.8,1-4.8,2.7c-1.2,2.2-1.8,4.8-1.7,7.3c-0.1,2.7,0.5,5.4,1.7,7.8c0.9,1.8,2.8,3,4.8,2.9
				c2,0,3.8-1.1,4.6-2.9c1.2-2.4,1.8-5,1.6-7.7c0.1-2.6-0.4-5.1-1.6-7.4C226.3,12.7,224.5,11.6,222.5,11.7L222.5,11.7z"/>
			<path class="st0" d="M251.5,33.5l-0.4-0.3v-2.9H251c-1.8,2.3-4.6,3.6-7.6,3.7c-4.2,0-6.3-2.6-6.3-7.7V15.3c0-1.9-1.2-2.9-3.6-3
				v-1.5l7.6-0.5l0.3,0.3v15.9c-0.1,1.3,0.3,2.6,1,3.6c0.6,0.9,1.7,1.4,2.7,1.3c2.4,0,4.6-1.3,5.8-3.4V15.1c0-0.6-0.2-1.3-0.6-1.8
				c-0.3-0.4-0.7-0.8-1.2-0.9c-0.4-0.1-1.3-0.1-2.5-0.2v-1.5l8.3-0.5l0.4,0.3v18.1c0,1.8,1.2,2.7,3.5,2.7V33
				C258.9,33,251.5,33.5,251.5,33.5z"/>
			<path class="st0" d="M263.4,32l-0.5,1.5h-1.7l-0.2-7.9h1.5c0.4,1.8,1.4,3.4,2.7,4.7c1.2,1.3,2.9,2,4.6,2c3.1,0,4.6-1.3,4.6-3.9
				c0-1-0.4-2-1.1-2.6c-1.4-1-3-1.7-4.7-2.1c-4.7-1.4-7-3.7-7-7c0-1.8,0.8-3.6,2.1-4.8c1.5-1.3,3.5-2,5.5-1.9c1.7,0,3.5,0.4,5,1.2
				l0.5-1.2h1.6l0.4,7.4h-1.6c-0.8-3.7-2.9-5.6-6-5.6c-1.1-0.1-2.1,0.3-3,0.9c-0.7,0.6-1.1,1.4-1.1,2.3c-0.1,1,0.3,2,1,2.6
				c1.5,0.9,3.1,1.6,4.7,2.1c2.7,0.9,4.6,1.9,5.6,3c1,1.1,1.6,2.6,1.5,4.2c0.1,2-0.8,3.9-2.4,5.2c-1.7,1.4-3.9,2.2-6.1,2.1
				c-2.2,0-4.3-0.7-6.1-2.1L263.4,32z"/>
			<path class="st0" d="M294.9,32.4c-1.9,0.9-4,1.4-6.2,1.5c-3.5,0-5.2-1.8-5.2-5.5V12.8h-4.1v-2.2h4.2V3.5h4.2v7.1h6.5v2.2h-6.5
				v12.8c-0.1,1.5,0.1,3,0.7,4.3c0.5,0.8,1.5,1.1,3,1.1c1.1,0,2.2-0.1,3.3-0.4L294.9,32.4L294.9,32.4z"/>
			<path class="st0" d="M307,34.1c-3,0-5.8-1.2-7.8-3.4c-2.1-2.4-3.3-5.5-3.1-8.7c-0.1-3.2,1-6.4,3.1-8.8c2.1-2.3,5.1-3.5,8.2-3.4
				c3-0.1,5.9,1.1,8,3.3c2.1,2.3,3.2,5.4,3,8.5c0.1,3.3-1,6.4-3.1,8.9C313.2,33,310.1,34.3,307,34.1z M307.3,11.7
				c-2-0.1-3.8,1-4.8,2.7c-1.2,2.2-1.8,4.8-1.7,7.3c-0.1,2.7,0.5,5.4,1.7,7.8c0.9,1.8,2.8,2.9,4.8,2.9c2,0,3.8-1.1,4.6-2.9
				c1.2-2.4,1.8-5,1.6-7.7c0.1-2.6-0.4-5.1-1.6-7.4C311,12.7,309.2,11.6,307.3,11.7L307.3,11.7z"/>
			<path class="st0" d="M333.8,33.4v-1.5l1.2-0.1c1.6-0.1,2.3-0.8,2.3-2.2V17.7c0.1-1.3-0.3-2.6-1.1-3.7c-0.7-0.9-1.7-1.4-2.8-1.4
				c-2.5-0.1-4.8,1.3-5.9,3.5v13.1c0,1.6,1.2,2.4,3.5,2.6v1.5h-11.2v-1.5l1.1-0.1c1.5-0.1,2.2-0.9,2.2-2.2V15.4c0-2-1.2-3-3.6-3.1
				v-1.5l7.6-0.5l0.3,0.3v3.1h0.1c1.2-1.3,2.6-2.4,4.2-3.2c1.1-0.4,2.3-0.7,3.5-0.6c4.3,0,6.5,2.5,6.5,7.6v11.9
				c0,1.5,1.1,2.4,3.3,2.5v1.5H333.8z"/>
			<path class="st0" d="M254.9,55.2c0,2.3-1.8,4.2-4.1,4.2c-2.3,0-4.2-1.8-4.2-4.1c0-2.3,1.8-4.2,4.1-4.2c0,0,0,0,0.1,0
				C253.1,51.1,254.9,52.9,254.9,55.2z M253.9,55.2c0-1.7-1.4-3.1-3.1-3.1c-1.7,0-3.1,1.4-3.1,3.1c0,1.7,1.4,3.1,3.1,3.1
				C252.5,58.3,253.9,56.9,253.9,55.2L253.9,55.2z M251.4,55.6l1.2,1.4h-1l-1.1-1.4h-0.3V57h-0.9v-3.8h1.8c1,0,1.5,0.5,1.5,1.2
				C252.6,55.2,252.1,55.5,251.4,55.6L251.4,55.6z M250.1,54.9h0.9c0.4,0,0.6-0.1,0.6-0.4c0-0.3-0.2-0.5-0.6-0.5h-0.9L250.1,54.9z"
				/>
		</g>
	</g>
</g>
</svg>
